<svg width="30" height="30" viewBox="0 0 30 30" fill="none" xmlns="http://www.w3.org/2000/svg">
<g clip-path="url(#clip0_66_465)">
<path d="M0 15C0 11.0218 1.58035 7.20644 4.3934 4.3934C7.20644 1.58035 11.0218 0 15 0C18.9782 0 22.7936 1.58035 25.6066 4.3934C28.4196 7.20644 30 11.0218 30 15C30 18.9782 28.4196 22.7936 25.6066 25.6066C22.7936 28.4196 18.9782 30 15 30C11.0218 30 7.20644 28.4196 4.3934 25.6066C1.58035 22.7936 0 18.9782 0 15ZM11.25 13.125C11.7473 13.125 12.2242 12.9275 12.5758 12.5758C12.9275 12.2242 13.125 11.7473 13.125 11.25C13.125 10.7527 12.9275 10.2758 12.5758 9.92418C12.2242 9.57254 11.7473 9.375 11.25 9.375C10.7527 9.375 10.2758 9.57254 9.92418 9.92418C9.57254 10.2758 9.375 10.7527 9.375 11.25C9.375 11.7473 9.57254 12.2242 9.92418 12.5758C10.2758 12.9275 10.7527 13.125 11.25 13.125ZM20.625 11.25C20.625 10.7527 20.4275 10.2758 20.0758 9.92418C19.7242 9.57254 19.2473 9.375 18.75 9.375C18.2527 9.375 17.7758 9.57254 17.4242 9.92418C17.0725 10.2758 16.875 10.7527 16.875 11.25C16.875 11.7473 17.0725 12.2242 17.4242 12.5758C17.7758 12.9275 18.2527 13.125 18.75 13.125C19.2473 13.125 19.7242 12.9275 20.0758 12.5758C20.4275 12.2242 20.625 11.7473 20.625 11.25ZM18.2662 20.91C18.5877 21.2894 19.0468 21.5256 19.5424 21.5666C20.038 21.6075 20.5296 21.4499 20.9091 21.1284C21.2885 20.8069 21.5247 20.3479 21.5656 19.8523C21.6066 19.3566 21.449 18.8651 21.1275 18.4856L21.1237 18.4819L21.1181 18.4744L21.105 18.4594L21.0712 18.4219C20.9382 18.2739 20.7974 18.1331 20.6494 18C20.2886 17.6774 19.8974 17.3904 19.4813 17.1431C18.1257 16.3394 16.5758 15.9224 15 15.9375C13.4242 15.9224 11.8743 16.3394 10.5188 17.1431C9.97441 17.4685 9.47353 17.8617 9.02813 18.3131L8.92875 18.42L8.895 18.4594L8.88187 18.4744L8.87625 18.4819L8.8725 18.4875C8.5645 18.8685 8.41785 19.3549 8.46393 19.8426C8.51001 20.3304 8.74516 20.7807 9.11906 21.0973C9.49296 21.4138 9.97591 21.5715 10.4646 21.5365C10.9532 21.5015 11.4088 21.2766 11.7337 20.91L11.7431 20.9006C11.7606 20.8806 11.7994 20.8431 11.8594 20.7881C12.0417 20.6255 12.2395 20.481 12.45 20.3569C13.2224 19.9038 14.1047 19.6722 15 19.6875C16.17 19.6875 17.0119 20.0344 17.55 20.3569C17.8064 20.5094 18.0437 20.6919 18.2569 20.9006L18.2662 20.91Z" fill="white"/>
</g>
<defs>
<clipPath id="clip0_66_465">
<rect width="30" height="30" fill="white"/>
</clipPath>
</defs>
</svg>
