<svg width="30" height="30" viewBox="0 0 30 30" fill="none" xmlns="http://www.w3.org/2000/svg">
<path d="M5.19729 17.4123C4.75988 16.6836 4.52881 15.8497 4.52881 14.9998C4.52881 14.1499 4.75988 13.3159 5.19729 12.5873C5.33172 12.3629 5.5116 12.1692 5.72536 12.0185C5.93913 11.8678 6.18206 11.7635 6.43854 11.7123L8.55479 11.2885C8.681 11.2635 8.79483 11.196 8.87729 11.0973L11.4623 7.9935C12.9398 6.2185 13.6798 5.33225 14.3385 5.571C14.9973 5.80975 14.9998 6.96475 14.9998 9.27475V20.7273C14.9998 23.036 14.9998 24.1898 14.3398 24.4298C13.681 24.6673 12.941 23.781 11.4635 22.0073L8.87479 18.9023C8.79265 18.8037 8.6793 18.7363 8.55354 18.711L6.43729 18.2873C6.18081 18.236 5.93788 18.1317 5.72411 17.981C5.51035 17.8304 5.33172 17.6366 5.19729 17.4123Z" fill="black"/>
<path d="M18.1694 10.58C19.3357 11.7462 19.9937 13.3262 20.0001 14.9755C20.0064 16.6248 19.3605 18.2098 18.2032 19.385M23.3207 7.92871C25.1867 9.79454 26.2396 12.3223 26.2499 14.9611C26.2602 17.5999 25.2271 20.1359 23.3757 22.0162" stroke="black" stroke-width="2.5" stroke-linecap="round"/>
</svg>
