<svg width="30" height="30" viewBox="0 0 30 30" fill="none" xmlns="http://www.w3.org/2000/svg">
<path fill-rule="evenodd" clip-rule="evenodd" d="M7.08631 5.94958C7.12007 5.66576 7.21957 5.39372 7.37691 5.1551C7.53425 4.91648 7.74509 4.71785 7.99266 4.57501C8.24024 4.43217 8.51772 4.34906 8.80305 4.33227C9.08838 4.31549 9.3737 4.3655 9.63631 4.47833C10.9638 5.04583 13.9388 6.39458 17.7138 8.57333C21.4901 10.7533 24.1463 12.6571 25.3001 13.5208C26.2851 14.2596 26.2876 15.7246 25.3013 16.4658C24.1588 17.3246 21.5351 19.2033 17.7138 21.4108C13.8888 23.6183 10.9488 24.9508 9.63381 25.5108C8.50131 25.9946 7.23381 25.2608 7.08631 24.0396C6.91381 22.6121 6.59131 19.3708 6.59131 14.9933C6.59131 10.6183 6.91256 7.37833 7.08631 5.94958Z" fill="white"/>
</svg>
