<svg width="31" height="30" viewBox="0 0 31 30" fill="none" xmlns="http://www.w3.org/2000/svg">
<g clip-path="url(#clip0_66_467)">
<path d="M0.75 15C0.75 11.0218 2.33035 7.20644 5.1434 4.3934C7.95644 1.58035 11.7718 0 15.75 0C19.7282 0 23.5436 1.58035 26.3566 4.3934C29.1696 7.20644 30.75 11.0218 30.75 15C30.75 18.9782 29.1696 22.7936 26.3566 25.6066C23.5436 28.4196 19.7282 30 15.75 30C11.7718 30 7.95644 28.4196 5.1434 25.6066C2.33035 22.7936 0.75 18.9782 0.75 15ZM21.375 11.25C21.375 10.7527 21.1775 10.2758 20.8258 9.92418C20.4742 9.57254 19.9973 9.375 19.5 9.375C19.0027 9.375 18.5258 9.57254 18.1742 9.92418C17.8225 10.2758 17.625 10.7527 17.625 11.25C17.625 11.7473 17.8225 12.2242 18.1742 12.5758C18.5258 12.9275 19.0027 13.125 19.5 13.125C19.9973 13.125 20.4742 12.9275 20.8258 12.5758C21.1775 12.2242 21.375 11.7473 21.375 11.25ZM12.4837 16.59C12.1588 16.2234 11.7032 15.9985 11.2146 15.9635C10.7259 15.9285 10.243 16.0862 9.86906 16.4027C9.49516 16.7193 9.26001 17.1696 9.21393 17.6574C9.16785 18.1451 9.3145 18.6315 9.6225 19.0125L9.62437 19.0163L9.62625 19.0181L9.63187 19.0256L9.645 19.0406L9.67875 19.0781L9.77813 19.1869C10.224 19.6391 10.7255 20.0329 11.2706 20.3587C12.6258 21.1615 14.175 21.5778 15.75 21.5625C17.3258 21.5776 18.8757 21.1606 20.2313 20.3569C20.7756 20.0315 21.2765 19.6383 21.7219 19.1869L21.8212 19.08L21.855 19.0406L21.8681 19.0256L21.8737 19.0181L21.8775 19.0144C22.199 18.6349 22.3566 18.1434 22.3156 17.6477C22.2747 17.1521 22.0385 16.6931 21.6591 16.3716C21.2796 16.0501 20.788 15.8925 20.2924 15.9334C19.7968 15.9744 19.3377 16.2106 19.0162 16.59L19.0069 16.5994C18.9894 16.6194 18.9506 16.6569 18.8906 16.7119C18.7089 16.8744 18.5117 17.0189 18.3019 17.1431C17.5289 17.5965 16.646 17.8282 15.75 17.8125C14.8547 17.8278 13.9724 17.5962 13.2 17.1431C12.9436 16.9906 12.7063 16.8081 12.4931 16.5994L12.4837 16.59ZM13.875 11.25C13.875 10.7527 13.6775 10.2758 13.3258 9.92418C12.9742 9.57254 12.4973 9.375 12 9.375C11.5027 9.375 11.0258 9.57254 10.6742 9.92418C10.3225 10.2758 10.125 10.7527 10.125 11.25C10.125 11.7473 10.3225 12.2242 10.6742 12.5758C11.0258 12.9275 11.5027 13.125 12 13.125C12.4973 13.125 12.9742 12.9275 13.3258 12.5758C13.6775 12.2242 13.875 11.7473 13.875 11.25Z" fill="white"/>
</g>
<defs>
<clipPath id="clip0_66_467">
<rect width="30" height="30" fill="white" transform="translate(0.75)"/>
</clipPath>
</defs>
</svg>
