<svg width="31" height="30" viewBox="0 0 31 30" fill="none" xmlns="http://www.w3.org/2000/svg">
<g clip-path="url(#clip0_66_466)">
<path d="M15.375 30C19.3532 30 23.1686 28.4196 25.9816 25.6066C28.7946 22.7936 30.375 18.9782 30.375 15C30.375 11.0218 28.7946 7.20644 25.9816 4.3934C23.1686 1.58035 19.3532 0 15.375 0C11.3968 0 7.58144 1.58035 4.7684 4.3934C1.95535 7.20644 0.375 11.0218 0.375 15C0.375 18.9782 1.95535 22.7936 4.7684 25.6066C7.58144 28.4196 11.3968 30 15.375 30ZM10.7109 10.3125C11.2082 10.3125 11.6851 10.51 12.0368 10.8617C12.3884 11.2133 12.5859 11.6902 12.5859 12.1875C12.5859 12.6848 12.3884 13.1617 12.0368 13.5133C11.6851 13.865 11.2082 14.0625 10.7109 14.0625C10.2137 14.0625 9.73674 13.865 9.38511 13.5133C9.03348 13.1617 8.83594 12.6848 8.83594 12.1875C8.83594 11.6902 9.03348 11.2133 9.38511 10.8617C9.73674 10.51 10.2137 10.3125 10.7109 10.3125ZM18.2109 12.1875C18.2109 11.6902 18.4085 11.2133 18.7601 10.8617C19.1117 10.51 19.5887 10.3125 20.0859 10.3125C20.5832 10.3125 21.0601 10.51 21.4118 10.8617C21.7634 11.2133 21.9609 11.6902 21.9609 12.1875C21.9609 12.6848 21.7634 13.1617 21.4118 13.5133C21.0601 13.865 20.5832 14.0625 20.0859 14.0625C19.5887 14.0625 19.1117 13.865 18.7601 13.5133C18.4085 13.1617 18.2109 12.6848 18.2109 12.1875ZM9.75 19.6875H21C21.5156 19.6875 21.9375 20.1094 21.9375 20.625C21.9375 21.1406 21.5156 21.5625 21 21.5625H9.75C9.23437 21.5625 8.8125 21.1406 8.8125 20.625C8.8125 20.1094 9.23437 19.6875 9.75 19.6875Z" fill="white"/>
</g>
<defs>
<clipPath id="clip0_66_466">
<rect width="30" height="30" fill="white" transform="translate(0.375)"/>
</clipPath>
</defs>
</svg>
