<svg width="30" height="30" viewBox="0 0 30 30" fill="none" xmlns="http://www.w3.org/2000/svg">
<path d="M24.8583 15.6641L26.5533 17.1735C26.8663 17.4347 27.0755 17.7994 27.1429 18.2014C27.2103 18.6035 27.1315 19.0164 26.9208 19.3654L24.8771 22.8566C24.7185 23.1239 24.4921 23.3445 24.2208 23.496C23.9464 23.6479 23.6382 23.7285 23.3246 23.7304C23.13 23.7316 22.9364 23.7025 22.7508 23.6441L20.5815 22.9279C20.2015 23.1716 19.8065 23.3898 19.3965 23.5823L18.9408 25.7816C18.8565 26.1862 18.6313 26.5477 18.3052 26.8016C17.975 27.0601 17.5657 27.1966 17.1465 27.1879H12.9146C12.4954 27.1966 12.086 27.0601 11.7558 26.8016C11.4305 26.5474 11.2059 26.186 11.1221 25.7816L10.6646 23.5823C10.26 23.3872 9.86738 23.168 9.48896 22.926L7.31208 23.6441C7.12646 23.7025 6.9329 23.7316 6.73833 23.7304C6.42532 23.7281 6.11784 23.6476 5.84396 23.496C5.5729 23.345 5.34653 23.1251 5.18771 22.8585L3.07083 19.3654C2.85076 19.0132 2.76667 18.5929 2.83432 18.1832C2.90198 17.7735 3.11673 17.4025 3.43833 17.1398L5.13146 15.0004V14.3366L3.43646 12.8273C3.12345 12.5661 2.91431 12.2014 2.8469 11.7994C2.77948 11.3973 2.85826 10.9844 3.06896 10.6354L5.18583 7.14414C5.34439 6.87689 5.57079 6.65631 5.84208 6.50476C6.11597 6.35321 6.42344 6.27263 6.73646 6.27039C6.92927 6.25823 7.1228 6.27594 7.31021 6.32289L9.44396 7.07289C9.82521 6.82914 10.2202 6.61101 10.629 6.41851L11.0865 4.21914C11.1703 3.81483 11.3949 3.45338 11.7202 3.19914C12.0504 2.94066 12.4597 2.80421 12.879 2.81289H17.0752C17.4944 2.80421 17.9038 2.94066 18.234 3.19914C18.5621 3.45601 18.7871 3.81789 18.8677 4.21914L19.3252 6.41851C19.7315 6.61226 20.1233 6.83101 20.5008 7.07476L22.6796 6.35851C22.9214 6.27985 23.1769 6.25223 23.4299 6.27741C23.683 6.30258 23.928 6.38 24.1496 6.50476C24.4215 6.65851 24.6465 6.87976 24.8058 7.14226L26.9208 10.6354C27.1439 10.9846 27.2322 11.4029 27.1694 11.8125C27.1066 12.222 26.897 12.5947 26.5796 12.861L24.8583 14.3273V15.6641Z" stroke="black" stroke-width="1.875"/>
<path d="M19.6875 15C19.6875 16.2432 19.1936 17.4355 18.3146 18.3146C17.4355 19.1936 16.2432 19.6875 15 19.6875C13.7568 19.6875 12.5645 19.1936 11.6854 18.3146C10.8064 17.4355 10.3125 16.2432 10.3125 15C10.3125 13.7568 10.8064 12.5645 11.6854 11.6854C12.5645 10.8064 13.7568 10.3125 15 10.3125C16.2432 10.3125 17.4355 10.8064 18.3146 11.6854C19.1936 12.5645 19.6875 13.7568 19.6875 15Z" stroke="black" stroke-width="1.875"/>
</svg>
