<svg width="135" height="42" viewBox="0 0 135 42" fill="none" xmlns="http://www.w3.org/2000/svg">
<path d="M1.73297 10.56C11.333 9.87 22.253 9.87 31.853 10.56L31.553 14.97C23.813 14.58 18.233 14.46 11.903 14.61C11.843 14.88 11.813 15.12 11.813 15.39C11.813 16.35 12.173 16.53 14.003 16.53C17.783 16.53 22.163 16.44 31.853 16.2L32.153 20.79C29.813 20.91 25.643 21.03 21.293 21.12V22.08H33.443V25.83H0.742969V22.08H12.893V21.18C5.03297 21.15 2.63297 20.22 2.63297 17.31C2.63297 16.53 2.72297 15.72 2.93297 14.94C2.63297 14.94 2.33297 14.94 2.03297 14.97L1.73297 10.56ZM1.88297 29.88V26.58H32.153V33.45H10.583V34.32H32.453V37.92H2.03297V30.75H23.603V29.88H1.88297ZM64.5865 10.23C65.9365 12.12 66.0865 15.09 65.1565 17.73H65.7565V22.5H54.8965V23.4H67.0465V27.45H34.3465V23.4H46.4965V22.5H44.3065C37.6165 22.5 35.6365 20.91 35.6365 17.55V10.23H44.3365V11.64H57.0865L56.8165 10.5L64.5865 10.23ZM35.6365 37.92V28.35H65.7565V37.92H35.6365ZM44.0365 34.02H57.3565V32.1H44.0365V34.02ZM44.3365 16.14C44.3965 17.43 45.0565 17.73 47.7265 17.73H56.8765C57.0265 17.19 57.1465 16.65 57.2065 16.14H44.3365ZM91.2 10.08H99.75V37.92H91.2V10.08ZM68.7 36.51C68.7 24.84 69.24 20.61 70.92 17.19H68.85V10.74H89.82V17.19H79.11C78.75 17.94 78.48 18.66 78.21 19.41C79.83 19.05 81.45 18.84 82.83 18.84C88.17 18.84 89.97 21 89.97 27.45V36.51L82.17 36.81V27.78C82.17 26.22 81.6 25.68 79.86 25.68C79.14 25.68 78 25.8 76.86 26.1C76.59 28.86 76.5 32.25 76.5 36.81L68.7 36.51ZM124.804 10.08H133.354V37.92H124.804V10.08ZM102.454 29.76C112.954 28.59 114.874 27.09 114.874 21.6C114.874 19.59 113.884 18.57 111.814 18.57C110.134 18.57 108.184 18.75 103.654 19.29L102.754 11.79C107.314 10.89 111.304 10.44 114.484 10.44C120.814 10.44 123.424 13.41 123.424 20.55C123.424 32.13 117.274 37.26 103.354 37.26L102.454 29.76Z" fill="black"/>
</svg>
