<svg width="30" height="30" viewBox="0 0 30 30" fill="none" xmlns="http://www.w3.org/2000/svg">
<path d="M15 4.0625C13.9226 4.0625 12.8892 4.49051 12.1274 5.25238C11.3655 6.01425 10.9375 7.04756 10.9375 8.125V15.625C10.9375 16.7024 11.3655 17.7358 12.1274 18.4976C12.8892 19.2595 13.9226 19.6875 15 19.6875C16.0774 19.6875 17.1108 19.2595 17.8726 18.4976C18.6345 17.7358 19.0625 16.7024 19.0625 15.625V8.125C19.0625 7.04756 18.6345 6.01425 17.8726 5.25238C17.1108 4.49051 16.0774 4.0625 15 4.0625Z" fill="#FF8018"/>
<path d="M9.6875 15.625C9.6875 15.3764 9.58873 15.1379 9.41291 14.9621C9.2371 14.7863 8.99864 14.6875 8.75 14.6875C8.50136 14.6875 8.2629 14.7863 8.08709 14.9621C7.91127 15.1379 7.8125 15.3764 7.8125 15.625C7.81246 17.3689 8.44645 19.0533 9.59632 20.3644C10.7462 21.6755 12.3335 22.5238 14.0625 22.7513V24.0625H11.25C11.0014 24.0625 10.7629 24.1613 10.5871 24.3371C10.4113 24.5129 10.3125 24.7514 10.3125 25C10.3125 25.2486 10.4113 25.4871 10.5871 25.6629C10.7629 25.8387 11.0014 25.9375 11.25 25.9375H18.75C18.9986 25.9375 19.2371 25.8387 19.4129 25.6629C19.5887 25.4871 19.6875 25.2486 19.6875 25C19.6875 24.7514 19.5887 24.5129 19.4129 24.3371C19.2371 24.1613 18.9986 24.0625 18.75 24.0625H15.9375V22.7513C17.6665 22.5238 19.2538 21.6755 20.4037 20.3644C21.5536 19.0533 22.1875 17.3689 22.1875 15.625C22.1875 15.3764 22.0887 15.1379 21.9129 14.9621C21.7371 14.7863 21.4986 14.6875 21.25 14.6875C21.0014 14.6875 20.7629 14.7863 20.5871 14.9621C20.4113 15.1379 20.3125 15.3764 20.3125 15.625C20.3125 17.034 19.7528 18.3852 18.7565 19.3815C17.7602 20.3778 16.409 20.9375 15 20.9375C13.591 20.9375 12.2398 20.3778 11.2435 19.3815C10.2472 18.3852 9.6875 17.034 9.6875 15.625Z" fill="#FF8018"/>
</svg>
